<svg id="Layer_1" data-name="Layer 1" xmlns="http://www.w3.org/2000/svg" viewBox="0 0 1329.96 310.92"><defs><style>.cls-1{fill:#ff8100}.cls-2{fill:#fff}</style></defs><path class="cls-1" d="M227.84 126.4a7.08 7.08 0 0 1-5.36 8l-76.32.06a7.13 7.13 0 0 1-4.89-9.95c0-.06.06-.06.06-.12s.09-.15.15-.26a23 23 0 0 1 1.58-2.84c8.86-15.31 24.08-24.82 44.39-24.82 13.58 0 24.64 4.21 31.84 12.09a29.26 29.26 0 0 1 3.89 5c-.06.06 0 .09 0 .09.56 1 1 1.84 1.52 2.84a24 24 0 0 1 1.29 3.1 25.19 25.19 0 0 1 1.06 3.25 35.83 35.83 0 0 1 .79 3.56z" transform="translate(-14.02 -26.04)"/><path class="cls-1" d="M300.85 26.08h-16.56l-202.86.21A31.84 31.84 0 0 0 51.64 52L14.71 238.42c-4.36 19.72 12.58 38.07 35.2 38.07l209.47-.2c17.09 0 31.78-10.74 35.15-25.64L332 64.12a31.81 31.81 0 0 0-31.15-38.04zm-24.58 128.38c-.27 1.85-.53 3.57-.85 5.3a8.23 8.23 0 0 1-.47 1.76h-.06a5.16 5.16 0 0 1-1 1.53v.05a7.52 7.52 0 0 1-1.79 1.53 8.87 8.87 0 0 1-1.08.52 5.87 5.87 0 0 1-2.69.59H141.86a7.07 7.07 0 0 0-7.14 8.16 1.43 1.43 0 0 0 .06.5c.14.73.35 1.46.55 2.14a11.14 11.14 0 0 0 .53 1.78 32.31 32.31 0 0 0 1.49 3.69c6.5 14.1 20.87 21.24 43.63 21.24 16.22 0 31.58-4.56 43.61-12.87a6.93 6.93 0 0 1 9.65 2l.21.38L249.14 216a6.91 6.91 0 0 1-.67 8.32 3.56 3.56 0 0 1-1 .87C227 239.62 201.41 246 175.54 246c-37.63 0-66.31-13.9-81.7-37.58a72.91 72.91 0 0 1-5.71-10.74 76.1 76.1 0 0 1-2.9-7.84.27.27 0 0 0 0-.14 88.51 88.51 0 0 1-3.8-26.2c0-61.51 44.57-107 108.45-107 47.06 0 78.87 24.34 86 63.59.26 1.37.47 2.78.67 4.24a82.15 82.15 0 0 1 .79 8.66c.06 1.58.09 3.16.09 4.71a134.33 134.33 0 0 1-1.16 16.76z" transform="translate(-14.02 -26.04)"/><path class="cls-2" d="M1343.85 95.37l-6.68 34.07a7.19 7.19 0 0 1-7.49 5.84c-1.93-.14-3.83-.23-6.06-.23-31.42 0-51.68 14.74-58.46 49.28L1247.87 271a7.17 7.17 0 0 1-7 5.77H1202a7.18 7.18 0 0 1-7-8.58l35-175.84a7.17 7.17 0 0 1 7-5.77h36a7.17 7.17 0 0 1 7 8.6l-3.23 16c14.67-15.94 34.24-23.06 59.49-24.41a7.24 7.24 0 0 1 7.59 8.6zm-248.46-8.79c-64 0-108.45 45.54-108.45 107.08 0 50 36.62 82.48 94.07 82.48 25.76 0 51.21-6.4 71.62-20.67a7.06 7.06 0 0 0 1.83-9.6L1140 222.78a7.17 7.17 0 0 0-10-2.1c-12.06 8.24-27.44 12.7-43.49 12.7-26.7 0-41.87-9.71-46.22-29a7.07 7.07 0 0 1 7-8.66h126.54a7.36 7.36 0 0 0 7.19-6 145.63 145.63 0 0 0 1.84-22c.04-49.4-33.8-81.14-87.47-81.14zm30.85 78.07h-72.82a7.16 7.16 0 0 1-6.56-10.28c8.76-17.05 24.5-27.76 46.11-27.81s37 10.65 40.35 29.8a7.16 7.16 0 0 1-7.08 8.29zM984.18 86.61a7.17 7.17 0 0 1 6.09 11l-126.74 203-20.64 33a7.19 7.19 0 0 1-6.08 3.37h-32.32a7.16 7.16 0 0 1-6.12-10.91L828 277.6l.81-1.43-41.67-180.78a7.18 7.18 0 0 1 7-8.78h38.51a7.17 7.17 0 0 1 7 5.63L862.72 197a7.17 7.17 0 0 0 13.13 2.19l66.43-109.13a7.16 7.16 0 0 1 6.12-3.44zm-269.39.01h38.65a7.17 7.17 0 0 1 7 8.6l-19.56 96.1a112.19 112.19 0 0 1-6.51 22.22c-11.78 29.37-33.46 49-59.43 57.58-10 3.4-25.53 5.36-43.92 5.37s-33.65-2-42.22-5.35c-22.58-8.56-36.51-28.11-36.51-57.56a106.56 106.56 0 0 1 2.4-22.23l19.63-98.91a7.18 7.18 0 0 1 7-5.78h38.74a7.17 7.17 0 0 1 7 8.56l-18.45 92.74v.18c-3.92 27.67 7.69 41.14 31.16 41.85 23.74-.63 40.79-13.75 48.19-41.06.09-.27.09-.72.18-1l19.51-95.56a7.17 7.17 0 0 1 7.14-5.75zM517 117.85l-.1-.1C504 97.7 481.13 86.06 450 86.06a96.38 96.38 0 0 0-44.28 10.28l1.26-5.93h-.05l7.29-34.73 4.67-22.24a6.13 6.13 0 0 0-6-7.4h-40.73a6.06 6.06 0 0 0-5.93 4.96l-27.81 139.11c-.63 3.09-1.2 6.24-1.62 9.49L319 268.9a6.22 6.22 0 0 0 1.63 5.51 6.34 6.34 0 0 0 4.4 1.83h38.09a6.16 6.16 0 0 0 6-4.88v-.1l.21-.89L372 258c13.17 12.12 31.9 18.84 55.56 18.84 31.32 0 57.71-13.12 75.81-35.62l.16-.16c15.9-19.68 25-46.64 25-78.33-.08-17.6-4.07-32.73-11.53-44.88zm-46.17 93.34l-.15.05c-9.71 11.91-23.93 18.94-40.72 18.94-14.27 0-25.18-4.51-32.26-12.49a27.8 27.8 0 0 1-4-5.35 36.25 36.25 0 0 1-3.73-8.87 51.3 51.3 0 0 1-1.88-14c0-17 5.08-31.43 13.69-41.92.63-.74 1.1-1.32 1.73-2.05.11 0 .11-.1.21-.16a59.52 59.52 0 0 1 5.19-5c8.92-7.45 20.26-11.54 33.11-11.54 16.74 0 29 6.19 35.94 16.84l.05.05c4 6.45 6.19 14.48 6.19 23.82-.03 16.86-4.96 31.18-13.41 41.68z" transform="translate(-14.02 -26.04)"/></svg>